<svg width="6" height="8" viewBox="0 0 6 8" fill="none" xmlns="http://www.w3.org/2000/svg">
<path d="M5.35645 8H0.483398V7.0332L2.7832 4.58203C3.09896 4.23698 3.33171 3.93587 3.48145 3.67871C3.63444 3.42155 3.71094 3.17741 3.71094 2.94629C3.71094 2.63053 3.63118 2.38314 3.47168 2.2041C3.31217 2.02181 3.08431 1.93066 2.78809 1.93066C2.46908 1.93066 2.2168 2.04134 2.03125 2.2627C1.84896 2.48079 1.75781 2.76888 1.75781 3.12695H0.341797C0.341797 2.69401 0.444336 2.2985 0.649414 1.94043C0.857747 1.58236 1.15072 1.30241 1.52832 1.10059C1.90592 0.895508 2.33398 0.792969 2.8125 0.792969C3.54492 0.792969 4.11296 0.96875 4.5166 1.32031C4.9235 1.67188 5.12695 2.16829 5.12695 2.80957C5.12695 3.16113 5.03581 3.51921 4.85352 3.88379C4.67122 4.24837 4.35872 4.67318 3.91602 5.1582L2.2998 6.8623H5.35645V8Z" fill="white"/>
</svg>
